<?xml version="1.0" encoding="iso-8859-1"?>
<!-- Generator: Adobe Illustrator 19.0.0, SVG Export Plug-In . SVG Version: 6.00 Build 0)  -->
<svg version="1.1" id="Capa_1" xmlns="http://www.w3.org/2000/svg" xmlns:xlink="http://www.w3.org/1999/xlink" x="0px" y="0px"
	 viewBox="0 0 480.004 480.004" style="enable-background:new 0 0 480.004 480.004;" xml:space="preserve">
<g>
	<g>
		<path d="M479.442,125.244c-0.088-0.24-0.19-0.475-0.304-0.704c-0.331-0.683-0.756-1.316-1.264-1.88
			c-0.112-0.12-0.192-0.264-0.312-0.376c-0.556-0.554-1.192-1.021-1.888-1.384l-232-120c-2.301-1.199-5.043-1.199-7.344,0l-232,120
			c-0.697,0.366-1.336,0.832-1.896,1.384c-0.112,0.112-0.184,0.24-0.288,0.36c-0.52,0.567-0.951,1.209-1.28,1.904
			c-0.114,0.226-0.216,0.458-0.304,0.696c-0.353,0.878-0.543,1.814-0.56,2.76v344c0,4.418,3.582,8,8,8h32c4.418,0,8-3.582,8-8
			v-63.576l23.504-219.344c19.466-0.791,38.051-8.328,52.568-21.32c15.366,13.793,35.279,21.435,55.928,21.464
			c20.671-0.018,40.609-7.657,56-21.456c15.384,13.858,35.359,21.52,56.064,21.504c1.088,0,2.192,0,3.296-0.072
			c21.559-0.814,41.966-9.936,56.952-25.456c15.457,13.948,35.201,22.22,55.984,23.456l23.704,221.224v63.576c0,4.418,3.582,8,8,8
			h32c4.418,0,8-3.582,8-8v-344C479.983,127.057,479.793,126.122,479.442,125.244z M240.002,17.012l199.12,102.992H40.882
			L240.002,17.012z M32.05,407.156c-0.032,0.282-0.048,0.565-0.048,0.848v56h-16v-293c11.444,9.078,25.062,15.007,39.504,17.2
			L32.05,407.156z M464.002,464.004h-16v-56c0-0.283-0.016-0.566-0.048-0.848L424.33,186.66c14.389-1.657,28.08-7.107,39.672-15.792
			V464.004z M464.002,149.164c-12.014,13.876-29.399,21.937-47.752,22.144c-22.11,0.813-43.445-8.203-58.272-24.624
			c-1.552-1.812-3.857-2.802-6.24-2.68c-2.375,0.08-4.591,1.212-6.048,3.088c-23.019,29.568-65.649,34.876-95.216,11.857
			c-3.048-2.373-5.887-5.001-8.488-7.857c-2.977-3.265-8.036-3.499-11.302-0.522c-0.182,0.166-0.356,0.34-0.522,0.522
			c-12.862,14.074-31.046,22.095-50.112,22.104c-19.068,0.09-37.269-7.953-50.04-22.112c-2.977-3.265-8.036-3.499-11.302-0.522
			c-0.182,0.166-0.356,0.34-0.522,0.522c-12.868,14.115-31.084,22.161-50.184,22.168h-0.4c-19.221-0.019-37.505-8.305-50.192-22.744
			l-1.408-1.544v-12.96h448V149.164z"/>
	</g>
</g>
<g>
</g>
<g>
</g>
<g>
</g>
<g>
</g>
<g>
</g>
<g>
</g>
<g>
</g>
<g>
</g>
<g>
</g>
<g>
</g>
<g>
</g>
<g>
</g>
<g>
</g>
<g>
</g>
<g>
</g>
</svg>
